<svg enable-background="new 0 0 1000 1000" viewBox="0 0 1000 1000" xmlns="http://www.w3.org/2000/svg"><path d="m500 10c-270.6 0-490 219.4-490 490s219.4 490 490 490 490-219.4 490-490c0-270.7-219.4-490-490-490zm-122.5 727.3h-122.5v-428.7h122.5zm-57.5-455c-31.7 0-57.4-25.7-57.4-57.5 0-31.7 25.7-57.5 57.4-57.5 31.7.1 57.5 25.8 57.5 57.5 0 31.8-25.7 57.5-57.5 57.5zm486.3 455h-122.5v-265c0-31.1-8.9-52.8-47-52.8-63.3 0-75.5 52.8-75.5 52.8v265.1h-122.5v-428.8h122.5v41c17.5-13.4 61.3-40.9 122.5-40.9 39.8 0 122.5 23.8 122.5 167.3z"/></svg>